<svg width="181" height="58" viewBox="0 0 181 58" fill="none" xmlns="http://www.w3.org/2000/svg">
<path d="M3.83523 11.0909H10.2273L21.3409 38.2273H21.75L32.8636 11.0909H39.2557V46H34.2443V20.7386H33.9205L23.625 45.9489H19.4659L9.17045 20.7216H8.84659V46H3.83523V11.0909ZM63.0895 35.142V19.8182H68.2031V46H63.1918V41.4659H62.919C62.3168 42.8636 61.3509 44.0284 60.0213 44.9602C58.7031 45.8807 57.0611 46.3409 55.0952 46.3409C53.4134 46.3409 51.9247 45.9716 50.6293 45.233C49.3452 44.483 48.3338 43.375 47.5952 41.9091C46.8679 40.4432 46.5043 38.6307 46.5043 36.4716V19.8182H51.6009V35.858C51.6009 37.642 52.0952 39.0625 53.0838 40.1193C54.0724 41.1761 55.3565 41.7045 56.9361 41.7045C57.8906 41.7045 58.8395 41.4659 59.7827 40.9886C60.7372 40.5114 61.527 39.7898 62.152 38.8239C62.7884 37.858 63.1009 36.6307 63.0895 35.142ZM94.6705 26.2102L90.0511 27.0284C89.858 26.4375 89.5511 25.875 89.1307 25.3409C88.7216 24.8068 88.1648 24.3693 87.4602 24.0284C86.7557 23.6875 85.875 23.517 84.8182 23.517C83.375 23.517 82.1705 23.8409 81.2045 24.4886C80.2386 25.125 79.7557 25.9489 79.7557 26.9602C79.7557 27.8352 80.0795 28.5398 80.7273 29.0739C81.375 29.608 82.4205 30.0455 83.8636 30.3864L88.0227 31.3409C90.4318 31.8977 92.2273 32.7557 93.4091 33.9148C94.5909 35.0739 95.1818 36.5795 95.1818 38.4318C95.1818 40 94.7273 41.3977 93.8182 42.625C92.9205 43.8409 91.6648 44.7955 90.0511 45.4886C88.4489 46.1818 86.5909 46.5284 84.4773 46.5284C81.5455 46.5284 79.1534 45.9034 77.3011 44.6534C75.4489 43.392 74.3125 41.6023 73.892 39.2841L78.8182 38.5341C79.125 39.8182 79.7557 40.7898 80.7102 41.4489C81.6648 42.0966 82.9091 42.4205 84.4432 42.4205C86.1136 42.4205 87.4489 42.0739 88.4489 41.3807C89.4489 40.6761 89.9489 39.8182 89.9489 38.8068C89.9489 37.9886 89.642 37.3011 89.0284 36.7443C88.4261 36.1875 87.5 35.767 86.25 35.483L81.8182 34.5114C79.375 33.9545 77.5682 33.0682 76.3977 31.8523C75.2386 30.6364 74.6591 29.0966 74.6591 27.233C74.6591 25.6875 75.0909 24.3352 75.9545 23.1761C76.8182 22.017 78.0114 21.1136 79.5341 20.4659C81.0568 19.8068 82.8011 19.4773 84.767 19.4773C87.5966 19.4773 89.8239 20.0909 91.4489 21.3182C93.0739 22.5341 94.1477 24.1648 94.6705 26.2102ZM104.007 55.8182C103.246 55.8182 102.553 55.7557 101.928 55.6307C101.303 55.517 100.837 55.392 100.53 55.2557L101.757 51.0795C102.689 51.3295 103.518 51.4375 104.246 51.4034C104.973 51.3693 105.615 51.0966 106.172 50.5852C106.74 50.0739 107.24 49.2386 107.672 48.0795L108.303 46.3409L98.723 19.8182H104.178L110.808 40.1364H111.081L117.712 19.8182H123.183L112.393 49.4943C111.893 50.858 111.257 52.0114 110.484 52.9545C109.712 53.9091 108.791 54.625 107.723 55.1023C106.655 55.5795 105.416 55.8182 104.007 55.8182ZM133.07 30.4545V46H127.973V19.8182H132.865V24.0795H133.189C133.791 22.6932 134.734 21.5795 136.018 20.7386C137.314 19.8977 138.945 19.4773 140.911 19.4773C142.695 19.4773 144.257 19.8523 145.598 20.6023C146.939 21.3409 147.979 22.4432 148.717 23.9091C149.456 25.375 149.825 27.1875 149.825 29.3466V46H144.729V29.9602C144.729 28.0625 144.234 26.5795 143.246 25.5114C142.257 24.4318 140.899 23.892 139.172 23.892C137.99 23.892 136.939 24.1477 136.018 24.6591C135.109 25.1705 134.388 25.9205 133.854 26.9091C133.331 27.8864 133.07 29.0682 133.07 30.4545ZM167.689 46.5284C165.155 46.5284 162.973 45.9545 161.143 44.8068C159.325 43.6477 157.928 42.0511 156.95 40.017C155.973 37.983 155.484 35.6534 155.484 33.0284C155.484 30.3693 155.984 28.0227 156.984 25.9886C157.984 23.9432 159.393 22.3466 161.212 21.1989C163.03 20.0511 165.172 19.4773 167.638 19.4773C169.626 19.4773 171.399 19.8466 172.956 20.5852C174.513 21.3125 175.768 22.3352 176.723 23.6534C177.689 24.9716 178.263 26.5114 178.445 28.2727H173.484C173.212 27.0455 172.587 25.9886 171.609 25.1023C170.643 24.2159 169.348 23.7727 167.723 23.7727C166.303 23.7727 165.058 24.1477 163.99 24.8977C162.933 25.6364 162.109 26.6932 161.518 28.0682C160.928 29.4318 160.632 31.0455 160.632 32.9091C160.632 34.8182 160.922 36.4659 161.501 37.8523C162.081 39.2386 162.899 40.3125 163.956 41.0739C165.024 41.8352 166.28 42.2159 167.723 42.2159C168.689 42.2159 169.564 42.0398 170.348 41.6875C171.143 41.3239 171.808 40.8068 172.342 40.1364C172.888 39.4659 173.268 38.6591 173.484 37.7159H178.445C178.263 39.4091 177.712 40.9205 176.791 42.25C175.871 43.5795 174.638 44.625 173.092 45.3864C171.558 46.1477 169.757 46.5284 167.689 46.5284Z" fill="#F97676"/>
</svg>
